<svg xmlns="http://www.w3.org/2000/svg" width="17.109" height="17.109" viewBox="0 0 17.109 17.109"><defs><style>.a{fill:#666;}</style></defs><g transform="translate(-31.32 -30.652)"><g transform="translate(37.673 42.473)"><path class="a" d="M49.5,58.839H46.42a.66.66,0,1,1,0-1.32H49.5a.66.66,0,1,1,0,1.32Z" transform="translate(-45.76 -57.519)"/></g><g transform="translate(37.673 36.815)"><path class="a" d="M47.762,45.98H46.419a.66.66,0,0,1,0-1.32h1.343a.66.66,0,1,1,0,1.32Z" transform="translate(-45.759 -44.66)"/></g><g transform="translate(39.214 36.815)"><path class="a" d="M49.923,51.357a.66.66,0,0,1-.66-.66V45.32a.66.66,0,1,1,1.32,0V50.7A.66.66,0,0,1,49.923,51.357Z" transform="translate(-49.263 -44.66)"/></g><g transform="translate(39.004 34.492)"><circle class="a" cx="0.83" cy="0.83" r="0.83" transform="translate(0 0)"/></g><g transform="translate(31.32 30.652)"><path class="a" d="M39.874,47.761a8.554,8.554,0,1,1,8.554-8.554A8.564,8.564,0,0,1,39.874,47.761Zm0-15.789a7.234,7.234,0,1,0,7.234,7.234A7.243,7.243,0,0,0,39.874,31.972Z" transform="translate(-31.32 -30.652)"/></g></g></svg>